:FULLY-SPECIFIED
:FORCE-ALL-JOINTS-BE-3DOF
:DEGREES
2548
root 4.0719 13.8097 -23.7796 -9.14037 81.4542 -11.1851
lfemur -35.749 6.36177 -14.6863
ltibia 86.8402 -0 0
lfoot -26.2324 27.7273 0.0989495
ltoes -42.3518 0 0
rfemur -58.0435 -22.3762 13.4238
rtibia 55.3704 -0 0
rfoot -1.6167 5.1478 0.294616
rtoes 3.1312 -0 0
lowerback 17.4715 0.201595 -4.88194
upperback -0.753718 -0.386487 2.93992
thorax -10.6502 0.203791 6.11612
lowerneck 4.9866 -14.6995 -15.2146
upperneck 0.109357 -20.5684 15.1258
head 2.38442 -10.4259 6.23644
lclavicle 4.47266e-16 -1.51076e-14 0
lhumerus -49.4217 -45.0533 113.134
lradius 106.189 -0 0
lwrist 79.9627 0 0
lhand 7.7686 40.1595 0.00415084
lfingers 7.12502 -0 0
lthumb 33.0052 67.1426 -0.00146906
rclavicle 4.47266e-16 -1.51076e-14 0
rhumerus 11.3638 -7.59624 -60.1767
rradius 80.5276 -0 0
rwrist 19.3001 0 0
rhand -34.1352 -43.6867 0.744853
rfingers 7.12502 -0 0
rthumb -7.30601 -73.3687 0.710163
2549
root 4.02541 13.8433 -23.9082 -5.58389 78.8057 -7.62114
lfemur -35.2752 4.69014 -15.5264
ltibia 86.1329 -0 0
lfoot -25.7965 28.2366 0.111275
ltoes -43.0325 0 0
rfemur -58.2392 -21.414 14.2891
rtibia 53.671 -0 0
rfoot -2.26655 4.13021 0.331368
rtoes 1.84767 -0 0
lowerback 17.6915 0.361673 -5.17057
upperback -0.644784 -0.248134 2.884
thorax -10.6753 0.281393 6.18553
lowerneck 4.97229 -14.7081 -15.232
upperneck 0.0453063 -20.5803 15.2738
head 2.38817 -10.4329 6.28091
lclavicle 4.47266e-16 -1.51076e-14 0
lhumerus -48.0695 -45.3781 112.566
lradius 105.66 -0 0
lwrist 79.3452 0 0
lhand 7.51096 40.1234 0.0046676
lfingers 7.12502 -0 0
lthumb 32.7599 67.156 -0.00165195
rclavicle 4.47266e-16 -1.51076e-14 0
rhumerus 12.5724 -5.2884 -59.6386
rradius 81.4953 -0 0
rwrist 16.6469 0 0
rhand -32.9097 -42.3212 0.838032
rfingers 7.12502 -0 0
rthumb -6.12302 -72.0202 0.798983
2550
root 3.97847 13.8777 -24.0385 -3.32742 76.0329 -5.3569
lfemur -34.7593 2.96511 -16.4099
ltibia 85.3999 -0 0
lfoot -25.3447 28.7646 0.11996
ltoes -43.7381 0 0
rfemur -58.4244 -20.4139 15.1764
rtibia 51.9097 -0 0
rfoot -2.94066 3.07515 0.357273
rtoes 0.517354 -0 0
lowerback 17.9186 0.528753 -5.46909
upperback -0.532022 -0.104624 2.82631
thorax -10.7012 0.361857 6.25744
lowerneck 4.95745 -14.717 -15.25
upperneck -0.0211193 -20.5925 15.4273
head 2.39206 -10.4402 6.32701
lclavicle 4.47266e-16 -1.51076e-14 0
lhumerus -46.655 -45.7046 111.962
lradius 105.112 -0 0
lwrist 78.7052 0 0
lhand 7.24393 40.0859 0.00503169
lfingers 7.12502 -0 0
lthumb 32.5057 67.1699 -0.00178081
rclavicle 4.47266e-16 -1.51076e-14 0
rhumerus 13.8442 -2.90897 -59.0312
rradius 82.4983 -0 0
rwrist 13.8969 0 0
rhand -31.6376 -40.9042 0.903744
rfingers 7.12502 -0 0
rthumb -4.89502 -70.6209 0.861618
2551
root 3.93163 13.9127 -24.169 -1.7931 73.1895 -3.81462
lfemur -34.2062 1.21388 -17.3262
ltibia 84.652 -0 0
lfoot -24.8836 29.3032 0.124529
ltoes -44.4578 0 0
rfemur -58.5952 -19.3911 16.0722
rtibia 50.1129 -0 0
rfoot -3.6287 1.99864 0.370903
rtoes -0.839705 0 0
lowerback 18.1494 0.700407 -5.77292
upperback -0.417142 0.0418859 2.76776
thorax -10.7275 0.443971 6.33075
lowerneck 4.94233 -14.7262 -15.2684
upperneck -0.0889212 -20.6048 15.5838
head 2.39601 -10.4476 6.37403
lclavicle 4.47266e-16 -1.51076e-14 0
lhumerus -45.1987 -46.0268 111.331
lradius 104.553 -0 0
lwrist 78.0522 0 0
lhand 6.97154 40.0477 0.00522321
lfingers 7.12502 -0 0
lthumb 32.2464 67.1841 -0.00184859
rclavicle 4.47266e-16 -1.51076e-14 0
rhumerus 15.1658 -0.496314 -58.3581
rradius 83.5214 -0 0
rwrist 11.0917 0 0
rhand -30.3386 -39.4575 0.93833
rfingers 7.12502 -0 0
rthumb -3.64113 -69.1924 0.894584
2552
root 3.88541 13.9476 -24.2981 -0.697186 70.3236 -2.71064
lfemur -33.6224 -0.536773 -18.2638
ltibia 83.9005 -0 0
lfoot -24.4203 29.8445 0.124754
ltoes -45.1811 0 0
rfemur -58.7487 -18.3608 16.9637
rtibia 48.3073 -0 0
rfoot -4.32026 0.916735 0.371575
rtoes -2.20345 0 0
lowerback 18.3804 0.874135 -6.07757
upperback -0.301847 0.189236 2.70921
thorax -10.7539 0.526523 6.40439
lowerneck 4.92713 -14.7353 -15.2869
upperneck -0.157098 -20.6169 15.7412
head 2.39998 -10.4551 6.42128
lclavicle 4.47266e-16 -1.51076e-14 0
lhumerus -43.7216 -46.3392 110.682
lradius 103.991 -0 0
lwrist 77.3961 0 0
lhand 6.6978 40.0093 0.00523266
lfingers 7.12502 -0 0
lthumb 31.9858 67.1984 -0.00185194
rclavicle 4.47266e-16 -1.51076e-14 0
rhumerus 16.5232 1.91176 -57.6254
rradius 84.5496 -0 0
rwrist 8.27262 0 0
rhand -29.0327 -38.0032 0.940036
rfingers 7.12502 -0 0
rthumb -2.38063 -67.7564 0.89621
